<svg xmlns="http://www.w3.org/2000/svg" viewBox="-40 0 930 250" width="465" height="125"><defs><linearGradient id="g" gradientUnits="userSpaceOnUse" x1="278" y1="150" x2="374" y2="150"><stop offset="0" stop-color="#3FA351"/><stop offset="1" stop-color="#00B3A4"/></linearGradient></defs><g fill="none" stroke-width="22" stroke-linecap="round" stroke-linejoin="round"><path d="M 100 150 A 50 50 0 1 0 87.16 183.46" stroke="#16271F"/><path d="M 11 150 L 89 150" stroke="#16271F"/><path d="M 146 100 L 188 200 L 230 100" stroke="#16271F"/><path d="M 278 166 C 294 166 302 132 322 132 C 350 132 358 160 374 160" stroke="url(#g)"/><path d="M 448 200 L 448 86 Q 448 44 486 44" stroke="#16271F"/><path d="M 422 100 L 488 100" stroke="#16271F"/><path d="M 528 44 L 528 200" stroke="#16271F"/><path d="M 622 100 A 50 50 0 1 1 622 200 A 50 50 0 1 1 622 100" stroke="#16271F"/><path d="M 718 100 L 751 200 L 784 112 L 817 200 L 850 100" stroke="#16271F"/></g></svg>